<svg width="42" height="42" viewBox="0 0 42 42" fill="none" xmlns="http://www.w3.org/2000/svg">
<path d="M3.5 21C3.5 12.7505 3.5 8.62575 6.062 6.062C8.6275 3.5 12.7505 3.5 21 3.5C29.2495 3.5 33.3742 3.5 35.9362 6.062C38.5 8.6275 38.5 12.7505 38.5 21C38.5 29.2495 38.5 33.3742 35.9362 35.9362C33.376 38.5 29.2495 38.5 21 38.5C12.7505 38.5 8.62575 38.5 6.062 35.9362C3.5 33.376 3.5 29.2495 3.5 21Z" fill="#FF7A00"/>
<path d="M18.4503 13.1547C18.5742 13.0309 18.6722 12.8836 18.7383 12.7214C18.8044 12.5592 18.8375 12.3854 18.8354 12.2103C18.8333 12.0351 18.7962 11.8622 18.7262 11.7016C18.6563 11.541 18.5549 11.3961 18.428 11.2753C18.3012 11.1545 18.1514 11.0603 17.9876 10.9983C17.8238 10.9363 17.6492 10.9077 17.4741 10.9142C17.2991 10.9208 17.1271 10.9622 16.9684 11.0363C16.8096 11.1103 16.6673 11.2153 16.5498 11.3452L12.5003 15.5977L11.4503 14.4952C11.3327 14.3653 11.1904 14.2603 11.0316 14.1863C10.8729 14.1122 10.7009 14.0708 10.5259 14.0642C10.3508 14.0577 10.1763 14.0863 10.0124 14.1483C9.84862 14.2103 9.69887 14.3045 9.57201 14.4253C9.44515 14.5461 9.34375 14.691 9.27379 14.8516C9.20383 15.0122 9.16672 15.1851 9.16464 15.3603C9.16257 15.5354 9.19558 15.7092 9.26172 15.8714C9.32786 16.0336 9.4258 16.1809 9.54976 16.3047L11.55 18.4047C11.6726 18.5334 11.82 18.6358 11.9834 18.7058C12.1467 18.7757 12.3226 18.8118 12.5003 18.8118C12.678 18.8118 12.8538 18.7757 13.0172 18.7058C13.1805 18.6358 13.3279 18.5334 13.4505 18.4047L18.4503 13.1547ZM22.75 14.4374C22.4019 14.4374 22.0681 14.5757 21.8219 14.8219C21.5758 15.068 21.4375 15.4018 21.4375 15.7499C21.4375 16.098 21.5758 16.4319 21.8219 16.678C22.0681 16.9242 22.4019 17.0624 22.75 17.0624H31.5C31.8481 17.0624 32.1819 16.9242 32.4281 16.678C32.6742 16.4319 32.8125 16.098 32.8125 15.7499C32.8125 15.4018 32.6742 15.068 32.4281 14.8219C32.1819 14.5757 31.8481 14.4374 31.5 14.4374H22.75ZM18.4503 25.4047C18.5742 25.2809 18.6722 25.1336 18.7383 24.9714C18.8044 24.8092 18.8375 24.6354 18.8354 24.4603C18.8333 24.2851 18.7962 24.1122 18.7262 23.9516C18.6563 23.791 18.5549 23.6461 18.428 23.5253C18.3012 23.4045 18.1514 23.3103 17.9876 23.2483C17.8238 23.1863 17.6492 23.1577 17.4741 23.1642C17.2991 23.1708 17.1271 23.2122 16.9684 23.2863C16.8096 23.3603 16.6673 23.4653 16.5498 23.5952L12.5003 27.8477L11.4503 26.7452C11.3327 26.6153 11.1904 26.5103 11.0316 26.4363C10.8729 26.3622 10.7009 26.3208 10.5259 26.3142C10.3508 26.3077 10.1763 26.3363 10.0124 26.3983C9.84862 26.4603 9.69887 26.5545 9.57201 26.6753C9.44515 26.7961 9.34375 26.941 9.27379 27.1016C9.20383 27.2622 9.16672 27.4351 9.16464 27.6103C9.16257 27.7854 9.19558 27.9592 9.26172 28.1214C9.32786 28.2836 9.4258 28.4309 9.54976 28.5547L11.55 30.6547C11.6726 30.7834 11.82 30.8858 11.9834 30.9558C12.1467 31.0257 12.3226 31.0618 12.5003 31.0618C12.678 31.0618 12.8538 31.0257 13.0172 30.9558C13.1805 30.8858 13.3279 30.7834 13.4505 30.6547L18.4503 25.4047ZM22.75 26.6874C22.4019 26.6874 22.0681 26.8257 21.8219 27.0719C21.5758 27.318 21.4375 27.6518 21.4375 27.9999C21.4375 28.348 21.5758 28.6819 21.8219 28.928C22.0681 29.1742 22.4019 29.3124 22.75 29.3124H31.5C31.8481 29.3124 32.1819 29.1742 32.4281 28.928C32.6742 28.6819 32.8125 28.348 32.8125 27.9999C32.8125 27.6518 32.6742 27.318 32.4281 27.0719C32.1819 26.8257 31.8481 26.6874 31.5 26.6874H22.75Z" fill="#FFA34D"/>
</svg>
