<svg width="43" height="43" viewBox="0 0 43 43" fill="none" xmlns="http://www.w3.org/2000/svg">
<path opacity="0.5" d="M3.58325 21.5C3.58325 13.0541 3.58325 8.83117 6.20625 6.20637C8.83284 3.58337 13.054 3.58337 21.4999 3.58337C29.9458 3.58337 34.1688 3.58337 36.7918 6.20637C39.4166 8.83296 39.4166 13.0541 39.4166 21.5C39.4166 29.946 39.4166 34.1689 36.7918 36.7919C34.1706 39.4167 29.9458 39.4167 21.4999 39.4167C13.054 39.4167 8.83104 39.4167 6.20625 36.7919C3.58325 34.1707 3.58325 29.946 3.58325 21.5Z" fill="black"/>
<path d="M18.8896 13.4679C19.0165 13.3412 19.1168 13.1904 19.1845 13.0244C19.2522 12.8583 19.286 12.6804 19.2839 12.5011C19.2818 12.3217 19.2438 12.1447 19.1722 11.9803C19.1005 11.8158 18.9967 11.6674 18.8668 11.5438C18.737 11.4201 18.5836 11.3237 18.4159 11.2602C18.2482 11.1967 18.0695 11.1675 17.8903 11.1741C17.711 11.1808 17.535 11.2233 17.3724 11.2991C17.2099 11.3748 17.0642 11.4824 16.9439 11.6154L12.7979 15.9691L11.7229 14.8404C11.6026 14.7074 11.4569 14.5998 11.2944 14.5241C11.1318 14.4483 10.9558 14.4058 10.7766 14.3991C10.5973 14.3925 10.4186 14.4217 10.2509 14.4852C10.0832 14.5487 9.92985 14.6451 9.79997 14.7688C9.67009 14.8924 9.56628 15.0408 9.49465 15.2053C9.42303 15.3697 9.38503 15.5467 9.38291 15.7261C9.38078 15.9054 9.41458 16.0833 9.48229 16.2494C9.55001 16.4154 9.65028 16.5662 9.77719 16.6929L11.8251 18.8429C11.9506 18.9747 12.1015 19.0795 12.2687 19.1512C12.436 19.2228 12.616 19.2598 12.7979 19.2598C12.9799 19.2598 13.1599 19.2228 13.3271 19.1512C13.4944 19.0795 13.6453 18.9747 13.7708 18.8429L18.8896 13.4679ZM23.2917 14.7812C22.9354 14.7812 22.5936 14.9228 22.3416 15.1748C22.0896 15.4268 21.948 15.7686 21.948 16.125C21.948 16.4814 22.0896 16.8232 22.3416 17.0752C22.5936 17.3272 22.9354 17.4687 23.2917 17.4687H32.2501C32.6065 17.4687 32.9482 17.3272 33.2002 17.0752C33.4522 16.8232 33.5938 16.4814 33.5938 16.125C33.5938 15.7686 33.4522 15.4268 33.2002 15.1748C32.9482 14.9228 32.6065 14.7812 32.2501 14.7812H23.2917ZM18.8896 26.0096C19.0165 25.8829 19.1168 25.7321 19.1845 25.566C19.2522 25.4 19.286 25.222 19.2839 25.0427C19.2818 24.8634 19.2438 24.6863 19.1722 24.5219C19.1005 24.3575 18.9967 24.2091 18.8668 24.0854C18.737 23.9618 18.5836 23.8654 18.4159 23.8019C18.2482 23.7384 18.0695 23.7091 17.8903 23.7158C17.711 23.7225 17.535 23.765 17.3724 23.8407C17.2099 23.9165 17.0642 24.0241 16.9439 24.157L12.7979 28.5108L11.7229 27.382C11.6026 27.2491 11.4569 27.1415 11.2944 27.0657C11.1318 26.99 10.9558 26.9475 10.7766 26.9408C10.5973 26.9341 10.4186 26.9634 10.2509 27.0269C10.0832 27.0904 9.92985 27.1868 9.79997 27.3104C9.67009 27.4341 9.56628 27.5825 9.49465 27.7469C9.42303 27.9113 9.38503 28.0884 9.38291 28.2677C9.38078 28.447 9.41458 28.625 9.48229 28.791C9.55001 28.9571 9.65028 29.1079 9.77719 29.2346L11.8251 31.3846C11.9506 31.5163 12.1015 31.6212 12.2687 31.6929C12.436 31.7645 12.616 31.8014 12.7979 31.8014C12.9799 31.8014 13.1599 31.7645 13.3271 31.6929C13.4944 31.6212 13.6453 31.5163 13.7708 31.3846L18.8896 26.0096ZM23.2917 27.3229C22.9354 27.3229 22.5936 27.4645 22.3416 27.7165C22.0896 27.9685 21.948 28.3103 21.948 28.6667C21.948 29.023 22.0896 29.3648 22.3416 29.6168C22.5936 29.8688 22.9354 30.0104 23.2917 30.0104H32.2501C32.6065 30.0104 32.9482 29.8688 33.2002 29.6168C33.4522 29.3648 33.5938 29.023 33.5938 28.6667C33.5938 28.3103 33.4522 27.9685 33.2002 27.7165C32.9482 27.4645 32.6065 27.3229 32.2501 27.3229H23.2917Z" fill="black"/>
</svg>
